<?xml version="1.0" encoding="utf-8"?>
<!-- Generator: Adobe Illustrator 16.0.0, SVG Export Plug-In . SVG Version: 6.00 Build 0)  -->
<!DOCTYPE svg PUBLIC "-//W3C//DTD SVG 1.1//EN" "http://www.w3.org/Graphics/SVG/1.1/DTD/svg11.dtd">
<svg version="1.1" id="Layer_1" xmlns="http://www.w3.org/2000/svg" xmlns:xlink="http://www.w3.org/1999/xlink" x="0px" y="0px"
	 width="244.652px" height="90px" viewBox="0 0 244.652 90" enable-background="new 0 0 244.652 90" xml:space="preserve">
<g>
	<g>
		<polygon fill="#D0D2D3" points="70.384,4.049 43.426,8.18 43.426,19.568 70.384,14.819 		"/>
		<path fill="#D0D2D3" d="M43.426,35.918v11.655l12.068-3.541c0,0,7.054-2.951,7.054,4.574c0,7.524-4.703,9.295-4.703,9.295
			l-14.42,4.278v11.951l16.144-6.049c0,0,11.427-5.725,10.814-23.607C69.836,28.43,56.005,32.662,56.005,32.662L43.426,35.918z"/>
	</g>
	<polygon fill="#FFFFFF" points="43.426,8.18 16.155,4.786 16.155,39.901 43.426,47.573 43.426,35.918 26.342,32.157 26.5,16.885 
		43.426,19.568 	"/>
	<polygon fill="#FFFFFF" points="43.426,74.131 16.155,64.491 16.155,53.145 43.426,62.18 	"/>
	<g>
		<path fill="#FFFFFF" d="M84.125,5.71v52.082H75.85V5.71H84.125z"/>
		<path fill="#FFFFFF" d="M100.182,5.71l26.085,42.052V5.71h7.87v52.082h-10.163L97.843,15.829v41.963h-7.871V5.71H100.182z"/>
		<path fill="#FFFFFF" d="M153.162,5.89c3.809-1.019,8.006-1.094,12.594-0.225c3.748,0.629,7.422,1.814,11.02,3.553l-1.08,7.017
			c-3.598-1.919-6.791-3.118-9.578-3.599c-3.209-0.629-6.117-0.629-8.727,0c-4.229,0.899-7.376,3.104-9.446,6.611
			c-2.068,3.508-3.043,8.126-2.923,13.853c0.119,6.087,1.679,10.72,4.678,13.897c1.439,1.5,3.103,2.534,4.992,3.104
			c1.889,0.51,4.152,0.81,6.791,0.899c4.318,0.09,9.717-0.209,16.193-0.899v7.286c-8.455,0.899-14.904,1.214-19.34,0.944
			c-5.459-0.42-9.792-1.979-12.999-4.677c-5.128-4.408-7.797-11.14-8.006-20.194c-0.151-7.406,1.123-13.493,3.822-18.26
			C143.852,10.343,147.855,7.239,153.162,5.89z"/>
		<path fill="#FFFFFF" d="M204.436,4.676c8.965,0,15.201,1.979,18.711,5.937c3.566,3.958,5.352,11.019,5.352,21.184
			c0,10.015-1.785,17.045-5.352,21.094c-3.959,3.838-10.121,5.756-18.486,5.756c-8.875,0-15.021-1.918-18.439-5.756
			c-3.598-4.049-5.396-11.079-5.396-21.094c0-10.075,1.799-17.136,5.396-21.184C190.268,6.744,196.34,4.766,204.436,4.676z
			 M204.66,11.916c-6.537,0-10.914,1.739-13.133,5.218c-1.889,3.059-2.863,7.99-2.924,14.797c0.09,6.687,1.064,11.559,2.924,14.617
			c1.199,1.679,2.924,2.923,5.172,3.732c2.34,0.75,4.992,1.125,7.961,1.125c6.658,0,11.049-1.664,13.178-4.993
			c1.92-2.997,2.879-7.87,2.879-14.616c0.18-7.106-0.779-12.054-2.879-14.842C215.23,13.416,210.836,11.736,204.66,11.916z"/>
	</g>
	<g>
		<path fill="#FFFFFF" d="M83.674,65.391v6.615h-0.947v-4.534c0-0.073,0.002-0.153,0.007-0.241c0.004-0.087,0.011-0.175,0.02-0.264
			l-2.126,3.928c-0.083,0.162-0.21,0.243-0.382,0.243h-0.151c-0.175,0-0.302-0.081-0.381-0.243l-2.159-3.938
			c0.009,0.089,0.016,0.178,0.021,0.267c0.005,0.089,0.007,0.172,0.007,0.248v4.534h-0.946v-6.615h0.804
			c0.095,0,0.168,0.009,0.221,0.025c0.052,0.017,0.099,0.068,0.142,0.154l2.123,3.845c0.046,0.089,0.089,0.18,0.131,0.273
			s0.079,0.189,0.113,0.287c0.037-0.098,0.076-0.195,0.117-0.292c0.042-0.096,0.085-0.188,0.131-0.277l2.09-3.836
			c0.042-0.086,0.09-0.138,0.142-0.154s0.125-0.025,0.221-0.025H83.674z"/>
		<path fill="#FFFFFF" d="M90.781,72.006H89.95c-0.095,0-0.172-0.023-0.23-0.07c-0.058-0.048-0.103-0.107-0.133-0.177l-0.551-1.461
			h-2.848l-0.551,1.461c-0.025,0.061-0.067,0.117-0.129,0.169c-0.061,0.053-0.138,0.078-0.229,0.078h-0.832l2.623-6.615h1.089
			L90.781,72.006z M88.746,69.525l-0.91-2.417c-0.073-0.187-0.148-0.424-0.225-0.712c-0.034,0.145-0.071,0.277-0.11,0.397
			c-0.04,0.121-0.077,0.228-0.11,0.319l-0.91,2.412H88.746z"/>
		<path fill="#FFFFFF" d="M96.588,72.006h-0.96c-0.19,0-0.328-0.073-0.414-0.22l-1.544-2.229c-0.052-0.077-0.109-0.132-0.169-0.166
			c-0.062-0.033-0.153-0.05-0.276-0.05h-0.597v2.664h-1.075v-6.615h1.948c0.435,0,0.809,0.045,1.123,0.133
			c0.314,0.089,0.572,0.216,0.774,0.379c0.202,0.164,0.352,0.361,0.448,0.591c0.097,0.23,0.145,0.485,0.145,0.768
			c0,0.229-0.035,0.443-0.104,0.643s-0.168,0.38-0.298,0.543c-0.13,0.162-0.29,0.303-0.48,0.422c-0.189,0.12-0.405,0.214-0.647,0.28
			c0.131,0.08,0.245,0.191,0.34,0.336L96.588,72.006z M93.473,68.561c0.245,0,0.459-0.03,0.643-0.089
			c0.184-0.061,0.337-0.144,0.459-0.251s0.214-0.235,0.275-0.384c0.062-0.148,0.092-0.313,0.092-0.493
			c0-0.362-0.12-0.638-0.358-0.827c-0.239-0.19-0.6-0.285-1.084-0.285h-0.873v2.329H93.473z"/>
		<path fill="#FFFFFF" d="M98.462,68.221h0.308c0.116,0,0.211-0.016,0.285-0.049c0.073-0.031,0.139-0.083,0.197-0.153l2.003-2.389
			c0.07-0.089,0.143-0.15,0.218-0.187c0.075-0.035,0.169-0.053,0.282-0.053h0.919l-2.366,2.793c-0.064,0.08-0.126,0.146-0.186,0.2
			c-0.06,0.054-0.125,0.098-0.195,0.131c0.092,0.034,0.174,0.08,0.248,0.14c0.074,0.061,0.146,0.139,0.216,0.237l2.453,3.114h-0.937
			c-0.068,0-0.125-0.004-0.172-0.014c-0.048-0.009-0.089-0.022-0.124-0.041s-0.066-0.041-0.092-0.069
			c-0.025-0.027-0.049-0.058-0.071-0.092l-2.067-2.526c-0.031-0.04-0.062-0.073-0.092-0.102c-0.031-0.027-0.067-0.051-0.108-0.068
			c-0.042-0.019-0.088-0.031-0.14-0.039s-0.113-0.012-0.184-0.012h-0.395v2.963h-1.075v-6.615h1.075V68.221z"/>
		<path fill="#FFFFFF" d="M107.715,71.138l-0.005,0.868h-4.125v-6.615h4.125v0.868h-3.046v1.994h2.435v0.841h-2.435v2.044H107.715z"
			/>
		<path fill="#FFFFFF" d="M113.43,66.286h-2.063v5.72h-1.07v-5.72h-2.067v-0.896h5.201V66.286z"/>
		<path fill="#FFFFFF" d="M115.428,72.006h-1.079v-6.615h1.079V72.006z"/>
		<path fill="#FFFFFF" d="M122.475,65.391v6.615h-0.546c-0.083,0-0.153-0.015-0.211-0.043c-0.058-0.029-0.113-0.077-0.165-0.145
			l-3.634-4.668c0.009,0.089,0.016,0.177,0.021,0.264c0.005,0.088,0.007,0.168,0.007,0.241v4.351h-0.946v-6.615h0.56
			c0.046,0,0.085,0.002,0.117,0.007c0.032,0.005,0.063,0.014,0.09,0.025c0.027,0.013,0.053,0.031,0.078,0.056
			c0.025,0.024,0.051,0.055,0.078,0.092l3.639,4.672c-0.009-0.095-0.016-0.188-0.021-0.28c-0.005-0.092-0.007-0.178-0.007-0.257
			v-4.314H122.475z"/>
		<path fill="#FFFFFF" d="M129.466,68.749v2.618c-0.658,0.476-1.424,0.712-2.297,0.712c-0.535,0-1.02-0.083-1.453-0.25
			s-0.804-0.399-1.109-0.698c-0.307-0.298-0.543-0.654-0.708-1.068c-0.165-0.413-0.248-0.867-0.248-1.364
			c0-0.499,0.079-0.956,0.239-1.371c0.158-0.415,0.387-0.771,0.685-1.07c0.296-0.299,0.655-0.53,1.075-0.693
			c0.419-0.164,0.891-0.246,1.414-0.246c0.267,0,0.514,0.021,0.742,0.062c0.229,0.042,0.439,0.1,0.637,0.173
			c0.195,0.073,0.377,0.162,0.541,0.267c0.166,0.104,0.318,0.221,0.455,0.349l-0.307,0.492c-0.05,0.076-0.113,0.124-0.189,0.142
			c-0.076,0.019-0.159,0-0.248-0.055c-0.089-0.052-0.184-0.107-0.282-0.165c-0.1-0.059-0.214-0.112-0.343-0.163
			s-0.277-0.092-0.445-0.124s-0.367-0.049-0.598-0.049c-0.349,0-0.663,0.058-0.943,0.173c-0.28,0.114-0.52,0.278-0.719,0.491
			s-0.353,0.471-0.46,0.774c-0.106,0.303-0.161,0.642-0.161,1.015c0,0.396,0.058,0.748,0.17,1.06
			c0.113,0.311,0.275,0.574,0.482,0.79c0.209,0.216,0.461,0.38,0.756,0.493c0.296,0.113,0.626,0.171,0.99,0.171
			c0.272,0,0.516-0.029,0.729-0.088s0.422-0.139,0.627-0.243v-1.314h-0.924c-0.07,0-0.125-0.019-0.164-0.057
			c-0.041-0.039-0.061-0.089-0.061-0.149v-0.611H129.466z"/>
		<path fill="#FFFFFF" d="M141.88,66.286h-2.063v5.72h-1.07v-5.72h-2.068v-0.896h5.201V66.286z"/>
		<path fill="#FFFFFF" d="M146.929,71.138l-0.005,0.868h-4.126v-6.615h4.126v0.868h-3.046v1.994h2.435v0.841h-2.435v2.044H146.929z"
			/>
		<path fill="#FFFFFF" d="M152.543,70.531c0.059,0,0.109,0.023,0.152,0.069l0.428,0.464c-0.271,0.325-0.602,0.575-0.994,0.751
			c-0.391,0.176-0.859,0.264-1.405,0.264c-0.484,0-0.922-0.083-1.313-0.25s-0.723-0.399-0.999-0.698
			c-0.275-0.298-0.487-0.654-0.636-1.068c-0.148-0.413-0.223-0.867-0.223-1.364c0-0.496,0.078-0.951,0.236-1.366
			s0.38-0.772,0.666-1.07c0.286-0.299,0.629-0.531,1.029-0.696c0.399-0.165,0.84-0.248,1.32-0.248c0.479,0,0.901,0.077,1.266,0.231
			c0.365,0.155,0.684,0.361,0.953,0.618l-0.354,0.501c-0.025,0.033-0.053,0.063-0.088,0.087c-0.033,0.024-0.08,0.037-0.137,0.037
			c-0.063,0-0.131-0.028-0.209-0.085s-0.178-0.12-0.299-0.188c-0.121-0.069-0.273-0.132-0.455-0.188s-0.41-0.085-0.682-0.085
			c-0.316,0-0.605,0.056-0.869,0.165c-0.264,0.11-0.49,0.271-0.68,0.482c-0.189,0.212-0.338,0.469-0.443,0.772
			c-0.105,0.303-0.158,0.647-0.158,1.033c0,0.389,0.055,0.736,0.165,1.041s0.263,0.562,0.455,0.771s0.42,0.37,0.681,0.48
			c0.26,0.11,0.54,0.165,0.84,0.165c0.184,0,0.348-0.01,0.495-0.03c0.145-0.02,0.279-0.052,0.402-0.096
			c0.121-0.045,0.236-0.101,0.346-0.168s0.217-0.15,0.324-0.248C152.42,70.559,152.482,70.531,152.543,70.531z"/>
		<path fill="#FFFFFF" d="M159.529,65.391v6.615h-0.545c-0.084,0-0.154-0.015-0.213-0.043c-0.057-0.029-0.113-0.077-0.164-0.145
			l-3.635-4.668c0.01,0.089,0.016,0.177,0.021,0.264c0.004,0.088,0.006,0.168,0.006,0.241v4.351h-0.945v-6.615h0.561
			c0.045,0,0.084,0.002,0.117,0.007c0.031,0.005,0.063,0.014,0.09,0.025c0.027,0.013,0.053,0.031,0.076,0.056
			c0.025,0.024,0.051,0.055,0.08,0.092l3.637,4.672c-0.008-0.095-0.016-0.188-0.02-0.28c-0.006-0.092-0.008-0.178-0.008-0.257
			v-4.314H159.529z"/>
		<path fill="#FFFFFF" d="M167.322,68.698c0,0.49-0.08,0.942-0.238,1.355c-0.16,0.413-0.385,0.77-0.674,1.068
			c-0.289,0.298-0.637,0.532-1.043,0.7c-0.406,0.169-0.857,0.253-1.354,0.253c-0.492,0-0.941-0.084-1.348-0.253
			c-0.406-0.168-0.754-0.402-1.045-0.7c-0.291-0.299-0.518-0.655-0.676-1.068c-0.16-0.413-0.238-0.865-0.238-1.355
			c0-0.489,0.078-0.941,0.238-1.354c0.158-0.414,0.385-0.771,0.676-1.071c0.291-0.3,0.639-0.534,1.045-0.702
			c0.406-0.169,0.855-0.253,1.348-0.253c0.496,0,0.947,0.084,1.354,0.253c0.406,0.168,0.754,0.402,1.043,0.702
			c0.289,0.301,0.514,0.657,0.674,1.071C167.242,67.757,167.322,68.209,167.322,68.698z M166.225,68.698
			c0-0.379-0.051-0.721-0.154-1.024c-0.104-0.303-0.25-0.561-0.441-0.771c-0.191-0.212-0.424-0.374-0.695-0.487
			c-0.273-0.113-0.58-0.17-0.92-0.17c-0.336,0-0.641,0.057-0.914,0.17c-0.271,0.113-0.506,0.275-0.697,0.487
			c-0.193,0.211-0.342,0.469-0.447,0.771c-0.104,0.304-0.156,0.646-0.156,1.024c0,0.384,0.053,0.727,0.156,1.029
			c0.105,0.304,0.254,0.56,0.447,0.77c0.191,0.21,0.426,0.371,0.697,0.482c0.273,0.111,0.578,0.168,0.914,0.168
			c0.34,0,0.646-0.057,0.92-0.168c0.271-0.111,0.504-0.272,0.695-0.482s0.338-0.466,0.441-0.77
			C166.174,69.425,166.225,69.082,166.225,68.698z"/>
		<path fill="#FFFFFF" d="M172.32,71.105v0.9h-3.822v-6.615h1.076v5.715H172.32z"/>
		<path fill="#FFFFFF" d="M179.193,68.698c0,0.49-0.08,0.942-0.238,1.355c-0.16,0.413-0.385,0.77-0.674,1.068
			c-0.289,0.298-0.637,0.532-1.043,0.7c-0.406,0.169-0.857,0.253-1.354,0.253c-0.492,0-0.941-0.084-1.348-0.253
			c-0.406-0.168-0.754-0.402-1.045-0.7c-0.291-0.299-0.516-0.655-0.676-1.068c-0.158-0.413-0.238-0.865-0.238-1.355
			c0-0.489,0.08-0.941,0.238-1.354c0.16-0.414,0.385-0.771,0.676-1.071c0.291-0.3,0.639-0.534,1.045-0.702
			c0.406-0.169,0.855-0.253,1.348-0.253c0.496,0,0.947,0.084,1.354,0.253c0.406,0.168,0.754,0.402,1.043,0.702
			c0.289,0.301,0.514,0.657,0.674,1.071C179.113,67.757,179.193,68.209,179.193,68.698z M178.096,68.698
			c0-0.379-0.051-0.721-0.154-1.024c-0.102-0.303-0.25-0.561-0.441-0.771c-0.191-0.212-0.424-0.374-0.695-0.487
			c-0.273-0.113-0.58-0.17-0.92-0.17c-0.336,0-0.641,0.057-0.914,0.17c-0.271,0.113-0.504,0.275-0.697,0.487
			c-0.193,0.211-0.342,0.469-0.445,0.771c-0.105,0.304-0.156,0.646-0.156,1.024c0,0.384,0.051,0.727,0.156,1.029
			c0.104,0.304,0.252,0.56,0.445,0.77s0.426,0.371,0.697,0.482c0.273,0.111,0.578,0.168,0.914,0.168c0.34,0,0.646-0.057,0.92-0.168
			c0.271-0.111,0.504-0.272,0.695-0.482s0.34-0.466,0.441-0.77C178.045,69.425,178.096,69.082,178.096,68.698z"/>
		<path fill="#FFFFFF" d="M185.785,68.749v2.618c-0.658,0.476-1.424,0.712-2.297,0.712c-0.535,0-1.02-0.083-1.453-0.25
			s-0.805-0.399-1.109-0.698c-0.307-0.298-0.543-0.654-0.709-1.068c-0.164-0.413-0.246-0.867-0.246-1.364
			c0-0.499,0.078-0.956,0.238-1.371c0.158-0.415,0.387-0.771,0.684-1.07s0.656-0.53,1.076-0.693
			c0.418-0.164,0.891-0.246,1.414-0.246c0.268,0,0.514,0.021,0.742,0.062c0.229,0.042,0.439,0.1,0.637,0.173
			c0.195,0.073,0.377,0.162,0.541,0.267c0.166,0.104,0.318,0.221,0.455,0.349l-0.307,0.492c-0.049,0.076-0.113,0.124-0.189,0.142
			c-0.076,0.019-0.158,0-0.248-0.055c-0.088-0.052-0.184-0.107-0.283-0.165c-0.1-0.059-0.213-0.112-0.342-0.163
			s-0.277-0.092-0.445-0.124s-0.367-0.049-0.598-0.049c-0.35,0-0.664,0.058-0.943,0.173c-0.281,0.114-0.52,0.278-0.719,0.491
			s-0.354,0.471-0.459,0.774c-0.107,0.303-0.162,0.642-0.162,1.015c0,0.396,0.057,0.748,0.17,1.06
			c0.113,0.311,0.275,0.574,0.482,0.79c0.209,0.216,0.461,0.38,0.756,0.493s0.625,0.171,0.99,0.171c0.273,0,0.516-0.029,0.729-0.088
			s0.422-0.139,0.627-0.243v-1.314h-0.924c-0.07,0-0.125-0.019-0.164-0.057c-0.041-0.039-0.061-0.089-0.061-0.149v-0.611H185.785z"
			/>
		<path fill="#FFFFFF" d="M189.457,63.476l-1.494,1.313c-0.055,0.049-0.107,0.08-0.156,0.092c-0.049,0.013-0.109,0.019-0.184,0.019
			h-0.711l1.01-1.255c0.027-0.039,0.055-0.069,0.082-0.092c0.027-0.021,0.059-0.038,0.092-0.05c0.035-0.013,0.072-0.021,0.113-0.023
			s0.09-0.004,0.145-0.004H189.457z M188.139,72.006h-1.08v-6.615h1.08V72.006z"/>
		<path fill="#FFFFFF" d="M195.246,72.006h-0.832c-0.096,0-0.172-0.023-0.23-0.07c-0.059-0.048-0.102-0.107-0.133-0.177
			l-0.551-1.461h-2.85l-0.551,1.461c-0.025,0.061-0.066,0.117-0.129,0.169c-0.061,0.053-0.137,0.078-0.229,0.078h-0.832l2.623-6.615
			h1.088L195.246,72.006z M193.209,69.525l-0.908-2.417c-0.074-0.187-0.148-0.424-0.225-0.712c-0.035,0.145-0.072,0.277-0.111,0.397
			c-0.039,0.121-0.076,0.228-0.109,0.319l-0.91,2.412H193.209z"/>
		<path fill="#FFFFFF" d="M207.607,72.006h-0.961c-0.189,0-0.328-0.073-0.412-0.22l-1.545-2.229
			c-0.051-0.077-0.109-0.132-0.17-0.166c-0.061-0.033-0.152-0.05-0.275-0.05h-0.598v2.664h-1.074v-6.615h1.947
			c0.436,0,0.809,0.045,1.123,0.133c0.314,0.089,0.572,0.216,0.775,0.379c0.201,0.164,0.352,0.361,0.447,0.591
			c0.096,0.23,0.145,0.485,0.145,0.768c0,0.229-0.035,0.443-0.104,0.643s-0.168,0.38-0.299,0.543
			c-0.129,0.162-0.289,0.303-0.48,0.422c-0.189,0.12-0.404,0.214-0.646,0.28c0.131,0.08,0.244,0.191,0.34,0.336L207.607,72.006z
			 M204.492,68.561c0.246,0,0.459-0.03,0.643-0.089c0.184-0.061,0.338-0.144,0.461-0.251c0.121-0.107,0.213-0.235,0.275-0.384
			c0.061-0.148,0.092-0.313,0.092-0.493c0-0.362-0.119-0.638-0.359-0.827c-0.238-0.19-0.6-0.285-1.084-0.285h-0.873v2.329H204.492z"
			/>
		<path fill="#FFFFFF" d="M213.441,72.006h-0.959c-0.191,0-0.328-0.073-0.414-0.22l-1.543-2.229
			c-0.053-0.077-0.109-0.132-0.17-0.166c-0.063-0.033-0.154-0.05-0.277-0.05h-0.596v2.664h-1.076v-6.615h1.949
			c0.434,0,0.809,0.045,1.123,0.133c0.313,0.089,0.572,0.216,0.773,0.379c0.203,0.164,0.352,0.361,0.447,0.591
			c0.098,0.23,0.145,0.485,0.145,0.768c0,0.229-0.033,0.443-0.104,0.643c-0.068,0.199-0.168,0.38-0.297,0.543
			c-0.131,0.162-0.291,0.303-0.48,0.422c-0.189,0.12-0.406,0.214-0.648,0.28c0.131,0.08,0.246,0.191,0.34,0.336L213.441,72.006z
			 M210.328,68.561c0.244,0,0.459-0.03,0.643-0.089c0.184-0.061,0.336-0.144,0.459-0.251s0.215-0.235,0.275-0.384
			s0.092-0.313,0.092-0.493c0-0.362-0.119-0.638-0.357-0.827c-0.24-0.19-0.602-0.285-1.084-0.285h-0.873v2.329H210.328z"/>
		<path fill="#FFFFFF" d="M219.717,65.391v6.615h-1.074v-2.944h-3.322v2.944h-1.08v-6.615h1.08v2.895h3.322v-2.895H219.717z"/>
		<path fill="#FFFFFF" d="M226.77,65.391v6.615h-1.076v-2.944h-3.32v2.944h-1.08v-6.615h1.08v2.895h3.32v-2.895H226.77z"/>
	</g>
	<circle fill="#FFFFFF" cx="133.338" cy="68.955" r="1.025"/>
	<circle fill="#FFFFFF" cx="198.35" cy="68.955" r="1.025"/>
</g>
</svg>
